#N canvas 510 115 599 419 10;
#X obj 185 238 Week.5.Example;
#X obj 442 186 catch~ Katzen;
#X obj 447 226 dac~;
#X floatatom 186 116 5 0 0 0 - - -, f 5;
#X obj 61 177 mtof;
#X obj 209 53 key;
#X floatatom 272 96 5 0 0 0 - - -, f 5;
#X obj 186 179 mtof;
#X obj 311 184 mtof;
#X obj 186 154 + 4;
#X obj 312 153 + 7;
#X obj 59 238 Week.5.Example;
#X obj 310 238 Week.5.Example;
#X obj 187 88 - 45;
#X connect 1 0 2 0;
#X connect 1 0 2 1;
#X connect 3 0 4 0;
#X connect 3 0 9 0;
#X connect 3 0 10 0;
#X connect 4 0 11 0;
#X connect 5 0 6 0;
#X connect 5 0 13 0;
#X connect 7 0 0 0;
#X connect 8 0 12 0;
#X connect 9 0 7 0;
#X connect 10 0 8 0;
#X connect 13 0 3 0;
