#N canvas 466 31 539 649 10;
#X obj 60 35 adc~;
#X obj 60 86 *~;
#X obj 94 66 tgl 15 0 empty empty empty 17 7 0 10 -262144 -1 -1 1 1
;
#X obj 60 121 delwrite~ d1 100;
#X obj 179 31 osc~ 440;
#X obj 179 74 *~;
#X obj 208 52 tgl 15 0 empty empty empty 17 7 0 10 -262144 -1 -1 0
1;
#X floatatom 77 211 5 0 0 0 - - -, f 5;
#X obj 77 231 osc~;
#X obj 77 253 +~ 1;
#X obj 77 275 *~ 0.5;
#X obj 77 326 *~;
#X obj 77 348 vd~ d1;
#X obj 77 400 *~;
#X floatatom 156 274 5 0 0 0 - - -, f 5;
#X floatatom 149 377 5 0 0 0 - - -, f 5;
#X obj 77 452 dac~;
#X connect 0 0 1 0;
#X connect 1 0 3 0;
#X connect 2 0 1 1;
#X connect 4 0 5 0;
#X connect 5 0 3 0;
#X connect 6 0 5 1;
#X connect 7 0 8 0;
#X connect 8 0 9 0;
#X connect 9 0 10 0;
#X connect 10 0 11 0;
#X connect 11 0 12 0;
#X connect 12 0 13 0;
#X connect 13 0 16 0;
#X connect 13 0 16 1;
#X connect 14 0 11 1;
#X connect 15 0 13 1;
