#N canvas 524 23 1004 676 10;
#X obj 63 563 *~;
#X obj 63 601 outlet~;
#X text 25 23 \$1: freq \; \$2: peak amp \; \$3: attack time \; \$4:
decay time;
#X obj 553 149 inlet;
#X obj 63 502 osc~;
#X obj 99 220 * 2;
#X floatatom 98 270 5 0 0 0 - - -, f 5;
#X obj 50 103 pack \$1;
#X floatatom 146 268 5 0 0 0 - - -, f 5;
#X obj 147 218 * 3;
#X floatatom 190 268 5 0 0 0 - - -, f 5;
#X obj 191 218 * 4;
#X floatatom 237 268 5 0 0 0 - - -, f 5;
#X obj 238 218 * 5;
#X obj 63 502 osc~;
#X obj 137 426 osc~;
#X obj 137 470 *~;
#X floatatom 290 267 5 0 0 0 - - -, f 5;
#X obj 291 217 * 6;
#X floatatom 338 266 5 0 0 0 - - -, f 5;
#X obj 339 216 * 7;
#X floatatom 390 264 5 0 0 0 - - -, f 5;
#X obj 391 214 * 8;
#X floatatom 442 262 5 0 0 0 - - -, f 5;
#X obj 443 212 * 9;
#X obj 554 350 vline~;
#X obj 554 371 *~;
#X obj 554 286 pack \$2 \$3 \$4;
#X msg 554 319 0 \, \$1 \$2 0 \, 0 \$3 \$2;
#X obj 642 256 bng 15 250 50 0 empty empty empty 17 7 0 10 -262144
-1 -1;
#X obj 448 104 bng 15 250 50 0 empty empty empty 17 7 0 10 -262144
-1 -1;
#X obj 410 155 send adsrBang;
#X obj 177 570 throw~ Katzen;
#X obj 319 372 unpack \$1 \$2;
#X connect 0 0 1 0;
#X connect 0 0 32 0;
#X connect 3 0 27 0;
#X connect 3 0 30 0;
#X connect 3 0 33 0;
#X connect 4 0 0 0;
#X connect 5 0 6 0;
#X connect 6 0 15 0;
#X connect 7 0 4 0;
#X connect 7 0 5 0;
#X connect 7 0 9 0;
#X connect 7 0 11 0;
#X connect 7 0 13 0;
#X connect 7 0 18 0;
#X connect 7 0 20 0;
#X connect 7 0 22 0;
#X connect 7 0 24 0;
#X connect 8 0 15 0;
#X connect 9 0 8 0;
#X connect 10 0 15 0;
#X connect 11 0 10 0;
#X connect 12 0 15 0;
#X connect 13 0 12 0;
#X connect 15 0 16 0;
#X connect 16 0 0 1;
#X connect 17 0 15 0;
#X connect 18 0 17 0;
#X connect 19 0 15 0;
#X connect 20 0 19 0;
#X connect 21 0 15 0;
#X connect 22 0 21 0;
#X connect 23 0 15 0;
#X connect 24 0 23 0;
#X connect 25 0 26 0;
#X connect 25 0 26 1;
#X connect 26 0 0 1;
#X connect 26 0 16 1;
#X connect 27 0 28 0;
#X connect 28 0 25 0;
#X connect 29 0 27 2;
#X connect 30 0 7 0;
#X connect 30 0 31 0;
#X connect 33 0 0 0;
#X connect 33 1 0 1;
