#N canvas 291 208 450 300 10;
#X obj 204 50 inlet;
#X obj 204 83 unpack \$1 \$2;
#X obj 204 130 osc~;
#X obj 204 174 *~;
#X obj 204 213 throw~ Katzen;
#X connect 0 0 1 0;
#X connect 1 0 2 0;
#X connect 1 1 3 1;
#X connect 2 0 3 0;
#X connect 3 0 4 0;
