#N canvas 226 229 450 300 10;
#X obj 95 115 *~;
#X obj 175 89 vsl 15 128 0 1 0 0 empty empty empty 0 -9 0 10 -262144
-1 -1 0 1;
#X obj 90 186 dac~;
#X floatatom 93 18 5 0 0 0 - - -, f 5;
#X msg 55 51 440;
#X obj 95 74 osc~ 110;
#X connect 0 0 2 0;
#X connect 0 0 2 1;
#X connect 1 0 0 1;
#X connect 3 0 5 0;
#X connect 4 0 5 0;
#X connect 5 0 0 0;
