#N canvas 366 190 525 344 10;
#X obj 170 131 +;
#X floatatom 173 193 5 0 0 0 - - -, f 5;
#X msg 145 79 10;
#X msg 208 72 5;
#X obj 141 43 t b b;
#X obj 142 16 bng 15 250 50 0 empty empty empty 17 7 0 10 -262144 -1
-1;
#X connect 0 0 1 0;
#X connect 2 0 0 0;
#X connect 3 0 0 1;
#X connect 4 0 2 0;
#X connect 4 0 3 0;
#X connect 5 0 4 0;
