#N canvas 218 132 480 593 10;
#X obj 87 199 phasor~ 330;
#X floatatom 172 308 5 0 0 0 - - -, f 5;
#X obj 85 343 *~;
#X obj 85 375 dac~;
#X obj 87 293 lop~;
#X obj 192 218 random 200;
#X obj 192 186 metro 150;
#X obj 193 153 tgl 15 0 empty empty empty 17 7 0 10 -262144 -1 -1 1
1;
#X obj 192 251 + 100;
#X connect 0 0 4 0;
#X connect 1 0 2 1;
#X connect 2 0 3 0;
#X connect 2 0 3 1;
#X connect 4 0 2 0;
#X connect 5 0 8 0;
#X connect 6 0 5 0;
#X connect 7 0 6 0;
#X connect 8 0 4 1;
