#N canvas 459 52 805 586 10;
#X floatatom 251 242 5 0 0 0 - - -, f 5;
#X obj 251 271 +~;
#X obj 251 307 osc~;
#X obj 251 350 *~;
#X obj 251 396 dac~;
#X msg 316 296 0.7 200;
#X obj 316 334 line~;
#X msg 384 296 0 200;
#X obj 334 164 osc~;
#X floatatom 334 125 5 0 0 0 - - -, f 5;
#X text 378 125 Modulator Frequency;
#X floatatom 393 163 5 0 0 0 - - -, f 5;
#X obj 334 208 *~;
#X text 437 165 Modulator Index (Depth);
#X text 394 277 Off;
#X text 331 275 On;
#X connect 0 0 1 0;
#X connect 1 0 2 0;
#X connect 2 0 3 0;
#X connect 3 0 4 0;
#X connect 5 0 6 0;
#X connect 6 0 3 1;
#X connect 7 0 6 0;
#X connect 8 0 12 0;
#X connect 9 0 8 0;
#X connect 11 0 12 1;
#X connect 12 0 1 1;
