#N canvas 0 23 1275 681 10;
#N canvas 0 22 450 300 (subpatch) 0;
#X array notes 32 float 2;
#X coords 0 1000 32 500 200 140 1 0 0;
#X restore 255 454 graph;
#N canvas 0 22 450 300 (subpatch) 0;
#X array durations 5 float 2;
#X coords 0 1000 5 0 200 140 1 0 0;
#X restore 47 449 graph;
#X obj 101 323 f;
#X obj 131 323 + 1;
#X msg 119 299 0;
#X obj 46 371 tabwrite notes;
#X obj 203 401 tabwrite durations;
#X obj 203 262 timer;
#X floatatom 203 283 5 0 0 0 - - -, f 5;
#X obj 326 381 f;
#X msg 237 102 \; notes const 21 \; durations const 0 \;;
#N canvas 198 80 338 360 fake-note 0;
#X obj 66 282 unpack f f;
#X msg 66 242 \$1 127;
#X msg 126 242 \$1 0;
#X floatatom 66 111 5 0 0 0 - - -, f 5;
#X obj 66 129 + 60;
#X obj 126 218 f;
#X obj 66 303 outlet;
#X obj 133 303 outlet;
#X obj 66 150 t f b;
#X msg 70 41 1;
#X msg 81 61 2;
#X msg 121 61 3;
#X msg 161 61 4;
#X connect 0 0 6 0;
#X connect 0 1 7 0;
#X connect 1 0 0 0;
#X connect 2 0 0 0;
#X connect 3 0 4 0;
#X connect 4 0 8 0;
#X connect 5 0 2 0;
#X connect 8 0 5 1;
#X connect 8 0 1 0;
#X connect 8 1 5 0;
#X connect 9 0 3 0;
#X connect 10 0 3 0;
#X connect 11 0 3 0;
#X connect 12 0 3 0;
#X restore 39 7 pd fake-note;
#X obj 46 73 notein;
#X obj 237 82 loadbang;
#X obj 46 94 spigot;
#X obj 46 138 t f b b b;
#X obj 119 279 r reset;
#X obj 235 228 spigot;
#X msg 274 202 0;
#X msg 314 202 1;
#X obj 274 180 r reset;
#X obj 199 17 bng 15 250 50 0 empty empty empty 17 7 0 10 -262144 -1
-1;
#X obj 199 37 s reset;
#X obj 307 82 r reset;
#X obj 505 152 f;
#X obj 552 154 + 1;
#X floatatom 503 190 5 0 0 0 - - -, f 5;
#X obj 503 211 mod 32;
#X obj 506 319 mtof;
#X obj 622 244 tabread durations;
#X obj 505 291 tabread notes;
#X obj 505 467 osc~;
#X obj 505 565 dac~;
#X obj 506 49 tgl 15 0 empty empty empty 17 7 0 10 -262144 -1 -1 0
1;
#X obj 589 56 r DurValues;
#X obj 609 559 adsr, f 26;
#X obj 624 489 hsl 128 15 0 127 0 0 empty empty empty -2 -8 0 10 -262144
-1 -1 0 1;
#X obj 813 511 hsl 128 15 0 127 0 0 empty empty empty -2 -8 0 10 -262144
-1 -1 0 1;
#X obj 624 276 s DurValues;
#X floatatom 505 247 5 0 0 0 - - -, f 5;
#X obj 503 105 metro 100;
#X obj 506 432 tabread4~;
#X msg 605 335 set saw;
#X msg 615 355 set sinewave;
#X msg 625 375 set triangle;
#X msg 635 395 set square;
#X floatatom 496 358 5 0 0 0 - - -, f 5;
#X obj 496 377 sig~;
#X obj 724 268 bng 15 250 50 0 empty empty empty 17 7 0 10 -262144
-1 -1;
#X obj 505 516 *~ 0.7;
#X obj 509 614 hradio 15 1 0 4 empty empty empty 0 -8 0 10 -262144
-1 -1 0;
#X obj 509 634 select 0 1 2 3;
#N canvas 0 22 450 300 (subpatch) 0;
#X array saw 515 float 0;
#X coords 0 1.02 514 -1.02 200 130 1;
#X restore 754 113 graph;
#N canvas 0 22 450 300 (subpatch) 0;
#X array sinewave 515 float 0;
#X coords 0 1.02 514 -1.02 200 130 1;
#X restore 984 113 graph;
#N canvas 0 22 450 300 (subpatch) 0;
#X array triangle 515 float 0;
#X coords 0 1.02 514 -1.02 200 130 1;
#X restore 754 273 graph;
#N canvas 0 22 450 300 (subpatch) 0;
#X array square 515 float 0;
#X coords 0 1.02 514 -1.02 200 130 1;
#X restore 984 273 graph;
#X connect 2 0 3 0;
#X connect 2 0 5 1;
#X connect 2 0 9 1;
#X connect 3 0 2 1;
#X connect 4 0 2 1;
#X connect 7 0 8 0;
#X connect 8 0 6 0;
#X connect 9 0 6 1;
#X connect 12 0 14 0;
#X connect 12 1 14 1;
#X connect 13 0 10 0;
#X connect 14 0 15 0;
#X connect 15 0 5 0;
#X connect 15 1 2 0;
#X connect 15 1 7 0;
#X connect 15 1 19 0;
#X connect 15 2 17 0;
#X connect 15 3 9 0;
#X connect 16 0 4 0;
#X connect 17 0 7 1;
#X connect 18 0 17 1;
#X connect 19 0 17 1;
#X connect 20 0 18 0;
#X connect 21 0 22 0;
#X connect 23 0 10 0;
#X connect 24 0 25 0;
#X connect 24 0 26 0;
#X connect 25 0 24 1;
#X connect 26 0 27 0;
#X connect 27 0 29 0;
#X connect 27 0 39 0;
#X connect 28 0 46 0;
#X connect 29 0 38 0;
#X connect 29 0 48 0;
#X connect 30 0 28 0;
#X connect 31 0 49 0;
#X connect 33 0 40 0;
#X connect 34 0 40 1;
#X connect 36 0 35 1;
#X connect 37 0 35 5;
#X connect 39 0 30 0;
#X connect 40 0 24 0;
#X connect 41 0 31 0;
#X connect 42 0 41 0;
#X connect 43 0 41 0;
#X connect 44 0 41 0;
#X connect 45 0 41 0;
#X connect 46 0 47 0;
#X connect 47 0 41 0;
#X connect 49 0 32 0;
#X connect 49 0 32 1;
#X connect 50 0 51 0;
