#N canvas 192 136 1061 583 10;
#X floatatom 291 34 5 0 0 0 - - -, f 5;
#X obj 292 67 line~;
#X obj 293 115 phasor~;
#X obj 293 151 *~;
#N canvas 0 22 450 278 (subpatch) 0;
#X array tab.freq 20 float 3;
#A 0 485.714 485.714 485.714 485.714 485.714 485.714 492.857 500 507.143
521.428 521.428 521.428 521.428 521.428 521.428 521.428 514.285 507.143
500 500;
#X coords 0 1000 20 0 200 140 1 0 0;
#X restore 486 128 graph;
#X obj 293 193 +~;
#X obj 294 288 osc~;
#X obj 295 330 *~;
#X obj 295 369 dac~;
#X msg 250 240 440;
#X obj 356 333 line~;
#X msg 425 286 0.7 50;
#X msg 425 319 0 50;
#X floatatom 354 152 5 0 0 0 - - -, f 5;
#X floatatom 353 194 5 0 0 0 - - -, f 5;
#X obj 294 239 tabread~ tab.freq;
#X text 333 32 how fast to cycle through;
#X text 137 152 how far to go through;
#X text 177 195 Where you start;
#X text 482 285 on;
#X text 466 320 off;
#X connect 0 0 1 0;
#X connect 1 0 2 0;
#X connect 2 0 3 0;
#X connect 3 0 5 0;
#X connect 5 0 15 0;
#X connect 6 0 7 0;
#X connect 7 0 8 0;
#X connect 7 0 8 1;
#X connect 9 0 6 0;
#X connect 10 0 7 1;
#X connect 11 0 10 0;
#X connect 12 0 10 0;
#X connect 13 0 3 1;
#X connect 14 0 5 1;
#X connect 15 0 6 0;
