#N canvas 278 114 450 300 10;
#X floatatom 68 174 5 0 0 0 - - -, f 5;
#X floatatom 149 175 5 0 0 0 - - -, f 5;
#X floatatom 235 175 5 0 0 0 - - -, f 5;
#X floatatom 66 53 5 0 0 0 - - -, f 5;
#X obj 148 117 delay 300;
#X obj 234 117 pipe 300;
#X connect 3 0 0 0;
#X connect 3 0 4 0;
#X connect 3 0 5 0;
#X connect 4 0 1 0;
#X connect 5 0 2 0;
