#N canvas 612 23 846 571 10;
#X obj 252 102 bng 15 250 50 0 empty empty empty 17 7 0 10 -262144
-1 -1;
#X obj 246 140 delay 300;
#X obj 561 473 dac~;
#X obj 281 184 523.25;
#X obj 328 141 delay 300;
#X obj 412 139 delay 300;
#X obj 494 140 delay 300;
#X obj 575 138 delay 300;
#X obj 657 139 delay 300;
#X obj 741 137 delay 300;
#X obj 823 138 delay 300;
#X obj 364 179 587.33;
#X obj 448 177 659.25;
#X obj 530 178 698.46;
#X obj 611 176 783.99;
#X obj 693 177 880;
#X obj 777 175 987.77;
#X obj 859 176 1046.5;
#X obj 561 419 *~;
#X obj 732 448 line~;
#X msg 756 415 1 500;
#X msg 820 413 0 500;
#X msg 639 346 10;
#N canvas 0 22 450 278 (subpatch) 0;
#X array array1 100 float 3;
#A 0 0 0 0 0 0 0 0 0 0 0 0 0 0 0 0 0 0 0 0 0 0 0 0 0 0 0 0 0 0 0 0
0 0 0 0 0 0 0 0 0 0 0 0 0 0 0 0 0 0 0 0 0 0 0 0 0 0 0 0 0 0 0 0 0 0
0 0 0 0 0 0 0 0 0 0 0 0 0 0 0 0 0 0 0 0 0 0 0 0 0 0 0 0 0 0 0 0 0 0
0;
#X coords 0 1 100 -1 200 140 1;
#X restore 157 340 graph;
#X obj 420 472 tabwrite~ array1;
#X obj 423 422 bng 15 250 50 0 empty empty empty 17 7 0 10 -262144
-1 -1;
#X text 104 493 This is drawing our sounds via tabwrite!;
#X obj 561 358 osc~;
#X obj 627 385 osc~;
#X connect 0 0 1 0;
#X connect 1 0 3 0;
#X connect 1 0 4 0;
#X connect 3 0 27 0;
#X connect 4 0 5 0;
#X connect 4 0 11 0;
#X connect 5 0 6 0;
#X connect 5 0 12 0;
#X connect 6 0 7 0;
#X connect 6 0 13 0;
#X connect 7 0 8 0;
#X connect 7 0 14 0;
#X connect 8 0 9 0;
#X connect 8 0 15 0;
#X connect 9 0 10 0;
#X connect 9 0 16 0;
#X connect 10 0 17 0;
#X connect 10 0 0 0;
#X connect 11 0 27 0;
#X connect 12 0 27 0;
#X connect 13 0 27 0;
#X connect 14 0 27 0;
#X connect 15 0 27 0;
#X connect 16 0 27 0;
#X connect 17 0 27 0;
#X connect 18 0 2 0;
#X connect 18 0 2 1;
#X connect 18 0 24 0;
#X connect 20 0 19 0;
#X connect 21 0 19 0;
#X connect 22 0 28 0;
#X connect 25 0 24 0;
#X connect 27 0 18 0;
#X connect 28 0 18 1;
