#N canvas 292 210 450 300 10;
#X floatatom 77 27 5 0 0 0 - - -, f 5;
#N canvas 664 205 450 300 calc 1;
#X obj 37 37 inlet;
#X obj 39 73 t b f;
#X msg 39 108 1;
#X obj 59 139 /;
#X obj 46 176 outlet;
#X connect 0 0 1 0;
#X connect 1 0 2 0;
#X connect 1 1 3 1;
#X connect 2 0 3 0;
#X connect 3 0 4 0;
#X restore 74 56 pd calc;
#X floatatom 77 94 5 0 0 0 - - -, f 5;
#X connect 0 0 1 0;
#X connect 1 0 2 0;
