#N canvas 574 56 914 590 10;
#X obj 158 50 tgl 15 0 empty empty empty 17 7 0 10 -262144 -1 -1 0
1;
#X obj 158 96 metro 1000;
#X obj 158 141 f;
#X obj 205 142 + 1;
#X obj 158 187 % 6;
#X floatatom 158 227 5 0 0 0 - - -, f 5;
#X obj 158 268 tabread pitches_2;
#X floatatom 158 311 5 0 0 0 - - -, f 5;
#N canvas 0 22 450 278 (subpatch) 0;
#X array pitches_2 6 float 3;
#A 0 0.1 0.2 0.6 0.9 0.6 0.692861;
#X coords 0 1 6 0 200 140 1 0 0;
#X restore 329 54 graph;
#X obj 158 344 * 10;
#X floatatom 158 375 5 0 0 0 - - -, f 5;
#X obj 159 411 + 60;
#X msg 328 225 \; pitches_2 0 0.2 0.4 0.6 0.7 0.8;
#X msg 328 265 \; pitches_2 0 0.1 0.2 0.6 0.9 0.6;
#X text 325 294 Changes the note sequence;
#X obj 240 374 makenote 64 230;
#X obj 240 423 noteout 1;
#X obj 155 468 mtof;
#X obj 156 506 osc~;
#X obj 156 537 dac~;
#X text 43 558 If you want it to make sound here;
#X text 234 444 If you want to make sound with other synth;
#N canvas 18 74 450 300 subpatch 0;
#X restore 693 345 pd subpatch;
#X text 548 364 This lets you put a pd patch within this pd patch;
#X connect 0 0 1 0;
#X connect 1 0 2 0;
#X connect 2 0 3 0;
#X connect 2 0 4 0;
#X connect 3 0 2 1;
#X connect 4 0 5 0;
#X connect 5 0 6 0;
#X connect 6 0 7 0;
#X connect 7 0 9 0;
#X connect 9 0 10 0;
#X connect 10 0 11 0;
#X connect 11 0 15 0;
#X connect 15 0 16 0;
#X connect 15 1 16 1;
#X connect 17 0 18 0;
#X connect 18 0 19 0;
#X connect 18 0 19 1;
