#N canvas 72 101 965 577 10;
#X obj 127 84 timer;
#X floatatom 127 124 10 0 0 0 - - -, f 10;
#X obj 126 55 bng 15 250 50 0 empty empty empty 17 7 0 10 -262144 -1
-1;
#X obj 161 32 bng 15 250 50 0 empty empty empty 17 7 0 10 -262144 -1
-1;
#X obj 276 195 wrap;
#X floatatom 276 149 5 0 0 0 - - -, f 5;
#X floatatom 276 243 5 0 0 0 - - -, f 5;
#X text 315 178 Takes the decimal place \, and gives you just the decimals
\, not the entire number.;
#X text 223 50 How often in distplays the updated counter.;
#X obj 70 342 phasor~ 1;
#X obj 70 404 snapshot~;
#X floatatom 70 443 5 0 0 0 - - -, f 5;
#X obj 159 57 metro 50;
#X obj 164 354 tgl 15 0 empty empty empty 17 7 0 10 -262144 -1 -1 0
1;
#X obj 164 374 metro 100;
#X text 240 368 Converts audio signals into numbers.;
#X obj 450 348 phasor~ 1;
#X obj 450 410 snapshot~;
#X floatatom 450 449 5 0 0 0 - - -, f 5;
#X obj 544 360 tgl 15 0 empty empty empty 17 7 0 10 -262144 -1 -1 0
1;
#X obj 544 380 metro 100;
#X floatatom 450 293 5 0 0 0 - - -, f 5;
#X obj 450 312 sig~;
#X text 504 293 Converts numbers to audio signals .;
#X connect 0 0 1 0;
#X connect 2 0 0 0;
#X connect 3 0 12 0;
#X connect 4 0 6 0;
#X connect 5 0 4 0;
#X connect 9 0 10 0;
#X connect 10 0 11 0;
#X connect 12 0 0 1;
#X connect 13 0 14 0;
#X connect 14 0 10 0;
#X connect 16 0 17 0;
#X connect 17 0 18 0;
#X connect 19 0 20 0;
#X connect 20 0 17 0;
#X connect 21 0 22 0;
#X connect 22 0 16 0;
