#N canvas 307 288 610 380 10;
#X obj 255 294 dac~;
#X obj 256 240 *~;
#X obj 255 179 osc~;
#X obj 254 126 500;
#X obj 248 38 bng 15 250 50 0 empty empty empty 17 7 0 10 -262144 -1
-1;
#X obj 255 83 delay 300;
#X connect 1 0 0 0;
#X connect 1 0 0 1;
#X connect 2 0 1 0;
#X connect 3 0 2 0;
#X connect 4 0 5 0;
#X connect 5 0 3 0;
