#N canvas 4 23 1276 702 10;
#X obj 192 53 tgl 15 0 empty empty empty 17 7 0 10 -262144 -1 -1 0
1;
#X obj 192 79 metro 1000;
#X obj 192 113 random 1000;
#X floatatom 141 160 5 0 0 0 - - -, f 5;
#X text 86 113 random number;
#X obj 191 166 moses 500;
#X text 276 168 moses splits the numbers at 500;
#X floatatom 166 220 5 0 0 0 - - -, f 5;
#X floatatom 273 217 5 0 0 0 - - -, f 5;
#X text 151 240 below 500;
#X text 260 241 above 500;
#X floatatom 190 313 5 0 0 0 - - -, f 5;
#X obj 188 343 spigot;
#X obj 273 321 tgl 15 0 empty empty empty 17 7 0 10 -262144 -1 -1 1
1;
#X floatatom 181 397 5 0 0 0 - - -, f 5;
#X text 16 346 spigot acts like on off;
#X text 294 320 pair spigot with a toggle;
#X floatatom 144 627 5 0 0 0 - - -, f 5;
#X obj 145 578 mod 6;
#X text 195 578 takes the remainder and puts it in the number box;
#X obj 217 522 + 1;
#X obj 146 417 tgl 15 0 empty empty empty 17 7 0 10 -262144 -1 -1 0
1;
#X text 251 522 <-- Creates infinite loop (very common);
#X obj 146 448 metro 1000;
#X obj 146 481 bng 15 250 50 0 empty empty empty 17 7 0 10 -262144
-1 -1;
#X obj 146 521 f;
#X connect 0 0 1 0;
#X connect 1 0 2 0;
#X connect 2 0 3 0;
#X connect 2 0 5 0;
#X connect 5 0 7 0;
#X connect 5 1 8 0;
#X connect 11 0 12 0;
#X connect 12 0 14 0;
#X connect 13 0 12 1;
#X connect 18 0 17 0;
#X connect 20 0 25 1;
#X connect 21 0 23 0;
#X connect 23 0 24 0;
#X connect 24 0 25 0;
#X connect 25 0 20 0;
#X connect 25 0 18 0;
