#N canvas 0 22 450 300 10;
#X obj 75 44 inlet~;
#X obj 75 66 fft~;
#X obj 75 88 *~;
#X obj 75 110 +~;
#X obj 75 132 sqrt~;
#X obj 105 88 *~;
#X obj 162 125 bang~;
#X obj 162 147 spigot;
#X obj 309 39 block~ \$1 \$2;
#X obj 218 126 inlet;
#X obj 75 194 tabwrite~ \$3;
#X connect 0 0 1 0;
#X connect 1 0 2 0;
#X connect 1 0 2 1;
#X connect 1 1 5 0;
#X connect 1 1 5 1;
#X connect 2 0 3 0;
#X connect 3 0 4 0;
#X connect 4 0 10 0;
#X connect 5 0 3 1;
#X connect 6 0 7 0;
#X connect 7 0 10 0;
#X connect 9 0 7 1;
