#N canvas 210 125 717 496 10;
#X floatatom 85 38 5 0 0 0 - - -, f 5;
#X obj 85 58 osc~ 440;
#X obj 84 218 *~;
#X msg 130 102 0.25;
#X floatatom 130 139 5 0 0 0 - - -, f 5;
#X obj 130 172 osc~;
#X msg 230 146 0;
#X msg 219 75 0 \, 800 15000;
#X obj 219 100 line;
#X msg 354 80 0;
#X obj 354 102 t b f;
#X obj 83 277 dac~;
#X obj 170 21 osc~ 25;
#X connect 0 0 1 0;
#X connect 1 0 2 0;
#X connect 2 0 11 0;
#X connect 2 0 11 1;
#X connect 3 0 4 0;
#X connect 4 0 5 0;
#X connect 5 0 2 1;
#X connect 6 0 5 1;
#X connect 7 0 8 0;
#X connect 8 0 4 0;
#X connect 9 0 10 0;
#X connect 10 0 6 0;
#X connect 10 1 4 0;
