#N canvas 332 191 472 470 10;
#N canvas 705 189 450 300 inlets 0;
#X obj 48 71 inlet;
#X obj 196 70 inlet;
#X obj 279 71 inlet;
#X obj 49 142 outlet;
#X obj 124 147 outlet;
#X obj 194 147 outlet;
#X obj 280 148 outlet;
#X obj 126 71 inlet~;
#X connect 0 0 3 0;
#X connect 1 0 5 0;
#X connect 2 0 6 0;
#X connect 7 0 4 0;
#X restore 179 167 pd inlets, f 29;
#X obj 202 84 osc~ 440;
#X obj 238 269 *~ 0.7;
#X obj 238 311 dac~;
#X floatatom 157 131 5 0 0 0 - - -, f 5;
#X floatatom 316 110 5 0 0 0 - - -, f 5;
#X floatatom 125 219 5 0 0 0 - - -, f 5;
#X floatatom 311 229 5 0 0 0 - - -, f 5;
#X connect 0 0 6 0;
#X connect 0 1 2 0;
#X connect 0 2 7 0;
#X connect 1 0 0 1;
#X connect 2 0 3 0;
#X connect 2 0 3 1;
#X connect 4 0 0 0;
#X connect 5 0 0 3;
