#N canvas 316 23 935 684 10;
#X obj 221 563 *~;
#X obj 222 599 dac~;
#X floatatom 303 519 5 0 0 0 - - -, f 5;
#X obj 302 572 pack f 40;
#X obj 302 599 line~;
#N canvas 0 22 450 278 (subpatch) 0;
#X array myWave 4e+06 float 0;
#X coords 0 1 4e+06 -1 200 140 1 0 0;
#X restore 547 100 graph;
#X obj 167 401 phasor~;
#X obj 167 491 tabread4~ myWave;
#X obj 167 447 +~ 1;
#X obj 302 543 dbtorms;
#X obj 517 329 soundfiler;
#X obj 596 383 print;
#X msg 514 285 read -resize Anthem.wav myWave;
#X floatatom 506 389 5 0 0 0 - - -, f 5;
#X floatatom 168 360 5 0 0 0 - - -, f 5;
#X obj 361 44 adc~;
#X obj 370 104 tabwrite~ myWave;
#X obj 420 52 bng 15 250 50 0 empty empty empty 17 7 0 10 -262144 -1
-1;
#X obj 93 67 notein;
#X obj 128 147 - 60;
#X floatatom 129 173 5 0 0 0 - - -, f 5;
#X floatatom 167 117 5 0 0 0 - - -, f 5;
#X obj 204 169 / 12;
#X obj 204 191 t b f;
#X msg 204 213 2;
#X obj 232 251 pow;
#X obj 232 273 * 44100;
#X obj 237 302 / 31000;
#X obj 167 425 *~ 31000;
#X connect 0 0 1 0;
#X connect 0 0 1 1;
#X connect 2 0 9 0;
#X connect 3 0 4 0;
#X connect 4 0 0 1;
#X connect 6 0 28 0;
#X connect 7 0 0 0;
#X connect 8 0 7 0;
#X connect 9 0 3 0;
#X connect 10 0 13 0;
#X connect 10 0 28 1;
#X connect 10 0 27 1;
#X connect 10 1 11 0;
#X connect 12 0 10 0;
#X connect 14 0 6 0;
#X connect 15 0 16 0;
#X connect 17 0 16 0;
#X connect 18 0 19 0;
#X connect 19 0 20 0;
#X connect 20 0 22 0;
#X connect 21 0 19 1;
#X connect 22 0 23 0;
#X connect 23 0 24 0;
#X connect 23 1 25 1;
#X connect 24 0 25 0;
#X connect 25 0 26 0;
#X connect 26 0 27 0;
#X connect 27 0 14 0;
#X connect 28 0 8 0;
