#N canvas 92 23 1128 708 10;
#X obj 546 538 + 60;
#X obj 546 560 mtof;
#X obj 546 582 osc~;
#X obj 546 604 *~ 0.4;
#X obj 546 647 dac~;
#X obj 539 89 metro 500;
#X obj 85 395 select 0 1 2 3;
#X obj 539 63 bng 15 250 50 0 empty empty empty 17 7 0 10 -262144 -1
-1;
#X obj 261 92 int;
#X obj 348 404 select 0 1 2 3;
#X obj 611 411 select 0 1 2 3;
#X obj 895 411 select 0 1 2 3;
#X obj 98 355 % 4;
#X floatatom 148 357 5 0 0 0 - - -, f 5;
#X floatatom 402 362 5 0 0 0 - - -, f 5;
#X floatatom 653 368 5 0 0 0 - - -, f 5;
#X floatatom 942 371 5 0 0 0 - - -, f 5;
#X obj 487 198 f;
#X obj 487 221 pack f f;
#X obj 301 91 + 1;
#X obj 260 51 bng 15 250 50 0 empty empty empty 17 7 0 10 -262144 -1
-1;
#X obj 260 122 mod 4;
#X obj 489 268 route 0 1 2 3;
#X obj 539 140 int;
#X obj 582 140 + 1;
#X msg 55 448 2;
#X msg 102 448 5;
#X msg 156 448 7;
#X msg 206 449 3;
#X msg 325 448 0;
#X msg 372 448 5;
#X msg 426 448 4;
#X msg 476 449 2;
#X msg 603 447 4;
#X msg 650 447 9;
#X msg 704 447 5;
#X msg 754 448 6;
#X msg 872 450 1;
#X msg 919 450 3;
#X msg 973 450 5;
#X msg 1023 451 7;
#X obj 353 361 % 4;
#X obj 609 367 % 4;
#X obj 894 370 % 4;
#X obj 370 68 random 12;
#X obj 370 90 select 0;
#X obj 370 112 spigot;
#X obj 438 114 tgl 15 0 empty empty empty 17 7 0 10 -262144 -1 -1 0
1;
#X connect 0 0 1 0;
#X connect 1 0 2 0;
#X connect 2 0 3 0;
#X connect 3 0 4 0;
#X connect 3 0 4 1;
#X connect 5 0 23 0;
#X connect 5 0 44 0;
#X connect 5 0 17 0;
#X connect 6 0 25 0;
#X connect 6 1 26 0;
#X connect 6 2 27 0;
#X connect 6 3 28 0;
#X connect 7 0 5 0;
#X connect 8 0 19 0;
#X connect 8 0 21 0;
#X connect 9 0 29 0;
#X connect 9 1 30 0;
#X connect 9 2 31 0;
#X connect 9 3 32 0;
#X connect 10 0 33 0;
#X connect 10 1 34 0;
#X connect 10 2 35 0;
#X connect 10 3 36 0;
#X connect 11 0 37 0;
#X connect 11 1 38 0;
#X connect 11 2 39 0;
#X connect 11 3 40 0;
#X connect 12 0 6 0;
#X connect 12 0 13 0;
#X connect 17 0 18 0;
#X connect 18 0 22 0;
#X connect 19 0 8 1;
#X connect 20 0 8 0;
#X connect 21 0 17 1;
#X connect 22 0 12 0;
#X connect 22 1 41 0;
#X connect 22 2 42 0;
#X connect 22 3 43 0;
#X connect 23 0 24 0;
#X connect 24 0 23 1;
#X connect 24 0 18 1;
#X connect 25 0 0 0;
#X connect 26 0 0 0;
#X connect 27 0 0 0;
#X connect 28 0 0 0;
#X connect 29 0 0 0;
#X connect 30 0 0 0;
#X connect 31 0 0 0;
#X connect 32 0 0 0;
#X connect 33 0 0 0;
#X connect 34 0 0 0;
#X connect 35 0 0 0;
#X connect 36 0 0 0;
#X connect 37 0 0 0;
#X connect 38 0 0 0;
#X connect 39 0 0 0;
#X connect 40 0 0 0;
#X connect 41 0 9 0;
#X connect 41 0 14 0;
#X connect 42 0 10 0;
#X connect 42 0 15 0;
#X connect 43 0 11 0;
#X connect 43 0 16 0;
#X connect 44 0 45 0;
#X connect 45 0 46 0;
#X connect 46 0 20 0;
#X connect 47 0 46 1;
