#N canvas 161 118 897 620 10;
#X obj 25 -53 table bell-samp;
#X obj 25 -17 loadbang;
#X msg 25 4 read -resize alarm-bell.wav bell-samp;
#X obj 25 25 soundfiler;
#N canvas 0 22 450 300 (subpatch) 0;
#X array \$0-spectrum 2048 float 0;
#X coords 0 0.2 1500 0 400 280 1;
#X restore 412 65 graph;
#X floatatom 25 46 10 0 0 0 - - -;
#X obj 128 495 list prepend 0;
#X obj 128 516 s \$0-spectrum;
#X msg 128 402 analyze \$1 4096;
#X obj 128 454 magSpec bell-samp;
#X obj 128 357 * 44.1;
#X obj 44 165 tgl 15 0 empty empty empty 17 7 0 10 -262144 -1 -1 0
1;
#X obj 87 249 + 1;
#X floatatom 85 189 5 0 0 0 - - -;
#X obj 25 214 metro 25;
#N canvas 639 66 801 628 record 0;
#X obj 40 10 inlet;
#N canvas 0 22 450 300 (subpatch) 0;
#X array amps-14438 1200 float 0;
#X coords 0 0.3 1199 0 200 140 1;
#X restore 551 447 graph;
#N canvas 0 22 450 300 (subpatch) 0;
#X array amps-5523 1200 float 0;
#X coords 0 0.3 1199 0 200 140 1;
#X restore 551 267 graph;
#N canvas 0 22 450 300 (subpatch) 0;
#X array amps-9615 1200 float 0;
#X coords 0 0.3 1199 0 200 140 1;
#X restore 301 447 graph;
#N canvas 0 22 450 300 (subpatch) 0;
#X array amps-2207 1200 float 0;
#X coords 0 0.3 1199 0 200 140 1;
#X restore 301 267 graph;
#X obj 443 70 tabread \$0-spectrum;
#X obj 40 61 t b f b f b f b f;
#X obj 443 99 tabwrite amps-2207;
#X msg 443 46 205;
#X obj 361 144 tabread \$0-spectrum;
#X obj 189 187 tabread \$0-spectrum;
#X obj 71 251 tabread \$0-spectrum;
#X obj 40 31 - 2605;
#X msg 71 227 1341;
#X msg 189 163 893;
#X msg 361 120 513;
#X msg 35 404 \; amps-2207 const 0 \; amps-5523 const 0 \; amps-9615
const 0 \; amps-14438 const 0 \;;
#X obj 361 173 tabwrite amps-5523;
#X obj 189 216 tabwrite amps-9615;
#X obj 71 280 tabwrite amps-14438;
#X connect 0 0 12 0;
#X connect 5 0 7 0;
#X connect 6 0 13 0;
#X connect 6 1 19 1;
#X connect 6 2 14 0;
#X connect 6 3 18 1;
#X connect 6 4 15 0;
#X connect 6 5 17 1;
#X connect 6 6 8 0;
#X connect 6 7 7 1;
#X connect 8 0 5 0;
#X connect 9 0 17 0;
#X connect 10 0 18 0;
#X connect 11 0 19 0;
#X connect 12 0 6 0;
#X connect 13 0 11 0;
#X connect 14 0 10 0;
#X connect 15 0 9 0;
#X restore 25 354 pd record;
#X text 81 276 start @ 2605 ms;
#N canvas 202 123 1083 533 synth 0;
#X msg 474 29 1 \, 1197 1198;
#X obj 474 50 line~;
#X obj 78 104 osc~ 2207;
#X obj 78 185 *~;
#X obj 110 144 tabread4~ amps-2207;
#X obj 121 441 *~;
#X obj 264 184 *~;
#X obj 461 191 *~;
#X obj 647 190 *~;
#X obj 264 103 osc~ 5523;
#X obj 461 110 osc~ 9615;
#X obj 647 109 osc~ 14438;
#X obj 679 149 tabread4~ amps-14438;
#X obj 493 150 tabread4~ amps-9615;
#X obj 296 143 tabread4~ amps-5523;
#X obj 516 438 hsl 128 15 0 100 0 0 empty empty empty -2 -8 0 10 -262144
-1 -1 0 1;
#X obj 513 458 dbtorms;
#X obj 832 288 del 1198;
#X obj 319 506 dac~;
#X obj 319 486 *~;
#X obj 873 35 bng 15 250 50 0 empty empty empty 17 7 0 10 -262144 -1
-1;
#X obj 832 348 line~;
#X msg 832 309 0 1000;
#X msg 920 302 1;
#X text 909 35 Play;
#X text 660 437 Volume;
#X text 28 21 Messy additive synthesis with only 4 oscillators;
#X connect 0 0 1 0;
#X connect 1 0 4 0;
#X connect 1 0 14 0;
#X connect 1 0 13 0;
#X connect 1 0 12 0;
#X connect 2 0 3 0;
#X connect 3 0 5 0;
#X connect 4 0 3 1;
#X connect 5 0 19 0;
#X connect 6 0 5 0;
#X connect 7 0 5 0;
#X connect 8 0 5 0;
#X connect 9 0 6 0;
#X connect 10 0 7 0;
#X connect 11 0 8 0;
#X connect 12 0 8 1;
#X connect 13 0 7 1;
#X connect 14 0 6 1;
#X connect 15 0 16 0;
#X connect 16 0 19 1;
#X connect 17 0 22 0;
#X connect 19 0 18 0;
#X connect 19 0 18 1;
#X connect 20 0 17 0;
#X connect 20 0 23 0;
#X connect 20 0 0 0;
#X connect 21 0 5 1;
#X connect 22 0 21 0;
#X connect 23 0 21 0;
#X restore 573 415 pd synth;
#X obj 25 275 f 2605;
#X msg 42 244 2605;
#X text 199 -38 Load the bell sample to a table;
#X obj 132 324 moses 4200;
#X obj 199 350 t b;
#X obj 25 296 t f f f;
#X text 21 142 Start spectrum analysis;
#X text 272 454 A special analysis object;
#X floatatom 108 299 5 0 0 0 - - -;
#X text 420 384 Once analysis is done \, try playing the synthesized
version:;
#X connect 1 0 2 0;
#X connect 2 0 3 0;
#X connect 3 0 5 0;
#X connect 6 0 7 0;
#X connect 8 0 9 0;
#X connect 9 0 6 0;
#X connect 10 0 8 0;
#X connect 11 0 14 0;
#X connect 12 0 18 1;
#X connect 13 0 14 1;
#X connect 14 0 18 0;
#X connect 18 0 12 0;
#X connect 18 0 23 0;
#X connect 19 0 18 1;
#X connect 21 1 22 0;
#X connect 22 0 11 0;
#X connect 22 0 19 0;
#X connect 23 0 15 0;
#X connect 23 1 10 0;
#X connect 23 2 21 0;
#X connect 23 2 26 0;
