#N canvas 292 122 876 599 10;
#X declare -path abstractions;
#X obj 67 188 readsf~;
#N canvas 0 22 450 300 (subpatch) 0;
#X array \$0-spec 4096 float 2;
#X coords 0 175.426 4095 0 400 280 1;
#X restore 431 36 graph;
#X obj 67 406 plot-spec 8192 4 \$0-spec;
#X obj 232 379 tgl 15 0 empty empty graph-on 17 7 0 12 -262144 -1 -1
1 1;
#X obj 404 357 graph-display \$0-spec 0 1 4095 0;
#X obj 628 331 hsl 128 15 0 4095 0 1 empty empty empty -2 -8 0 10 -262144
-1 -1 12700 1;
#X obj 404 213 vsl 15 128 0.1 1000 1 1 empty empty empty 0 -9 0 10
-262144 -1 -1 10300 1;
#X obj 446 482 declare -path abstractions;
#N canvas 224 66 617 643 tracks 0;
#X obj 83 41 inlet~;
#X obj 83 527 unpack f f;
#X floatatom 150 548 10 0 0 0 - - -;
#X obj 238 473 unpack f f;
#X floatatom 305 494 10 0 0 0 - - -;
#X obj 298 393 unpack f f;
#X floatatom 365 414 10 0 0 0 - - -;
#X obj 398 333 unpack f f;
#X floatatom 465 354 10 0 0 0 - - -;
#X obj 83 278 route 0 1 2 3;
#X obj 83 257 sigmund~ -npts 8192 -hop 2048 -npeak 4 peaks;
#X msg 194 45 minvel 20;
#X obj 165 77 bonk~ -npts 1024 -hop 64;
#X obj 165 98 t b;
#X obj 194 24 loadbang;
#X obj 307 135 del 5000;
#X msg 307 103 1;
#X msg 267 103 0;
#X obj 165 140 s trig;
#X obj 174 329 r trig;
#X obj 19 543 f;
#X floatatom 19 564 10 0 0 0 - - -;
#X obj 165 119 spigot 1;
#X obj 174 350 del 100;
#X obj 190 489 f;
#X floatatom 190 510 10 0 0 0 - - -;
#X obj 250 409 f;
#X floatatom 250 430 10 0 0 0 - - -;
#X obj 360 349 f;
#X floatatom 360 370 10 0 0 0 - - -;
#X connect 0 0 10 0;
#X connect 0 0 12 0;
#X connect 1 0 20 1;
#X connect 1 1 2 0;
#X connect 3 0 24 1;
#X connect 3 1 4 0;
#X connect 5 0 26 1;
#X connect 5 1 6 0;
#X connect 7 0 28 1;
#X connect 7 1 8 0;
#X connect 9 0 1 0;
#X connect 9 1 3 0;
#X connect 9 2 5 0;
#X connect 9 3 7 0;
#X connect 10 0 9 0;
#X connect 11 0 12 0;
#X connect 12 0 13 0;
#X connect 13 0 22 0;
#X connect 14 0 11 0;
#X connect 15 0 16 0;
#X connect 16 0 22 1;
#X connect 17 0 22 1;
#X connect 19 0 23 0;
#X connect 20 0 21 0;
#X connect 22 0 15 0;
#X connect 22 0 17 0;
#X connect 22 0 18 0;
#X connect 23 0 20 0;
#X connect 23 0 24 0;
#X connect 23 0 26 0;
#X connect 23 0 28 0;
#X connect 24 0 25 0;
#X connect 26 0 27 0;
#X connect 28 0 29 0;
#X restore 134 367 pd tracks;
#X obj 191 286 *~;
#X obj 191 317 dac~;
#X obj 212 201 hsl 128 15 0 100 0 0 empty empty empty -2 -8 0 10 -262144
-1 -1 10600 1;
#X obj 209 221 dbtorms;
#X obj 209 242 pack f 40;
#X obj 209 263 line~;
#X msg 67 137 open alarm-bell.wav \, start;
#X connect 0 0 2 0;
#X connect 0 0 8 0;
#X connect 0 0 9 0;
#X connect 3 0 2 1;
#X connect 5 0 4 1;
#X connect 6 0 4 0;
#X connect 9 0 10 0;
#X connect 9 0 10 1;
#X connect 11 0 12 0;
#X connect 12 0 13 0;
#X connect 13 0 14 0;
#X connect 14 0 9 1;
#X connect 15 0 0 0;
